<svg xmlns="http://www.w3.org/2000/svg" width="600" height="600" viewBox="0 0 600 600">
  <rect width="600" height="600" fill="#0d0d0d"/>
  <rect x="40" y="40" width="520" height="520" rx="32" fill="#181818"/>
  <!-- Onda animada (estática para og:image) -->
  <g transform="translate(180, 240)">
    <rect x="0"   y="30" width="16" height="40" rx="6" fill="#7C5CFC" opacity="0.7"/>
    <rect x="24"  y="10" width="16" height="80" rx="6" fill="#7C5CFC"/>
    <rect x="48"  y="20" width="16" height="60" rx="6" fill="#7C5CFC" opacity="0.9"/>
    <rect x="72"  y="0"  width="16" height="100" rx="6" fill="#7C5CFC"/>
    <rect x="96"  y="15" width="16" height="70"  rx="6" fill="#7C5CFC" opacity="0.8"/>
    <rect x="120" y="5"  width="16" height="90"  rx="6" fill="#7C5CFC"/>
    <rect x="144" y="25" width="16" height="50"  rx="6" fill="#7C5CFC" opacity="0.7"/>
    <rect x="168" y="10" width="16" height="80"  rx="6" fill="#7C5CFC" opacity="0.9"/>
    <rect x="192" y="30" width="16" height="40"  rx="6" fill="#7C5CFC" opacity="0.6"/>
    <rect x="216" y="18" width="16" height="65"  rx="6" fill="#7C5CFC"/>
  </g>
  <!-- Texto SoundDrift -->
  <text x="300" y="420" text-anchor="middle" font-family="-apple-system, BlinkMacSystemFont, sans-serif"
        font-size="38" font-weight="700" fill="#fff">SoundDrift</text>
  <text x="300" y="462" text-anchor="middle" font-family="-apple-system, BlinkMacSystemFont, sans-serif"
        font-size="18" fill="#666">Escucha música sin límites</text>
</svg>
